<svg width="344" height="69" viewBox="0 0 344 69" fill="none" xmlns="http://www.w3.org/2000/svg">
<path d="M56.4158 54.0469H57.6941L60.9549 62.1611L64.2088 54.0469H65.4939L61.4471 64H60.449L56.4158 54.0469ZM55.9988 54.0469H57.1268L57.3113 60.1172V64H55.9988V54.0469ZM64.7762 54.0469H65.9041V64H64.5916V60.1172L64.7762 54.0469ZM72.1814 62.7354V58.9277C72.1814 58.6361 72.1222 58.3831 72.0037 58.1689C71.8897 57.9502 71.7166 57.7816 71.4841 57.6631C71.2517 57.5446 70.9646 57.4854 70.6228 57.4854C70.3038 57.4854 70.0235 57.54 69.782 57.6494C69.545 57.7588 69.3582 57.9023 69.2214 58.0801C69.0893 58.2578 69.0232 58.4492 69.0232 58.6543H67.7586C67.7586 58.39 67.8269 58.1279 67.9636 57.8682C68.1003 57.6084 68.2963 57.3737 68.5515 57.1641C68.8113 56.9499 69.1212 56.7812 69.4812 56.6582C69.8458 56.5306 70.2514 56.4668 70.698 56.4668C71.2358 56.4668 71.7097 56.5579 72.1199 56.7402C72.5346 56.9225 72.8582 57.1982 73.0906 57.5674C73.3276 57.932 73.4461 58.39 73.4461 58.9414V62.3867C73.4461 62.6328 73.4666 62.8949 73.5076 63.1729C73.5531 63.4508 73.6192 63.6901 73.7058 63.8906V64H72.3865C72.3227 63.8542 72.2725 63.6605 72.2361 63.4189C72.1996 63.1729 72.1814 62.945 72.1814 62.7354ZM72.4002 59.5156L72.4138 60.4043H71.1355C70.7755 60.4043 70.4542 60.4339 70.1716 60.4932C69.8891 60.5479 69.6521 60.6322 69.4607 60.7461C69.2693 60.86 69.1235 61.0036 69.0232 61.1768C68.9229 61.3454 68.8728 61.5436 68.8728 61.7715C68.8728 62.0039 68.9252 62.2158 69.03 62.4072C69.1349 62.5986 69.2921 62.7513 69.5017 62.8652C69.7159 62.9746 69.978 63.0293 70.2878 63.0293C70.6752 63.0293 71.017 62.9473 71.3132 62.7832C71.6095 62.6191 71.8442 62.4186 72.0173 62.1816C72.1951 61.9447 72.2908 61.7145 72.3045 61.4912L72.8445 62.0996C72.8126 62.291 72.726 62.5029 72.5847 62.7354C72.4434 62.9678 72.2543 63.1911 72.0173 63.4053C71.7849 63.6149 71.5069 63.7904 71.1834 63.9316C70.8643 64.0684 70.5043 64.1367 70.1033 64.1367C69.602 64.1367 69.1622 64.0387 68.7839 63.8428C68.4102 63.6468 68.1186 63.3848 67.9089 63.0566C67.7039 62.724 67.6013 62.3525 67.6013 61.9424C67.6013 61.5459 67.6788 61.1973 67.8337 60.8965C67.9887 60.5911 68.212 60.3382 68.5037 60.1377C68.7953 59.9326 69.1462 59.7777 69.5564 59.6729C69.9666 59.568 70.4246 59.5156 70.9304 59.5156H72.4002ZM76.0798 56.6035L77.6999 59.2969L79.3405 56.6035H80.8239L78.404 60.2539L80.8991 64H79.4362L77.7273 61.2246L76.0183 64H74.5486L77.0368 60.2539L74.6237 56.6035H76.0798ZM83.3346 56.6035V64H82.0632V56.6035H83.3346ZM81.9675 54.6416C81.9675 54.4365 82.029 54.2633 82.152 54.1221C82.2796 53.9808 82.4665 53.9102 82.7126 53.9102C82.9541 53.9102 83.1387 53.9808 83.2663 54.1221C83.3985 54.2633 83.4645 54.4365 83.4645 54.6416C83.4645 54.8376 83.3985 55.0062 83.2663 55.1475C83.1387 55.2842 82.9541 55.3525 82.7126 55.3525C82.4665 55.3525 82.2796 55.2842 82.152 55.1475C82.029 55.0062 81.9675 54.8376 81.9675 54.6416ZM86.4127 58.0732V64H85.1412V56.6035H86.3444L86.4127 58.0732ZM86.153 60.0215L85.5651 60.001C85.5696 59.4951 85.6357 59.028 85.7633 58.5996C85.8909 58.1667 86.08 57.7907 86.3307 57.4717C86.5814 57.1527 86.8935 56.9066 87.2672 56.7334C87.6409 56.5557 88.0739 56.4668 88.5661 56.4668C88.9124 56.4668 89.2314 56.5169 89.5231 56.6172C89.8147 56.7129 90.0677 56.8656 90.2819 57.0752C90.4961 57.2848 90.6624 57.5537 90.7809 57.8818C90.8994 58.21 90.9586 58.6064 90.9586 59.0713V64H89.694V59.1328C89.694 58.7454 89.6279 58.4355 89.4957 58.2031C89.3681 57.9707 89.1858 57.8021 88.9489 57.6973C88.7119 57.5879 88.4339 57.5332 88.1149 57.5332C87.7412 57.5332 87.429 57.5993 87.1784 57.7314C86.9277 57.8636 86.7272 58.0459 86.5768 58.2783C86.4264 58.5107 86.317 58.7773 86.2487 59.0781C86.1849 59.3743 86.153 59.6888 86.153 60.0215ZM90.945 59.3242L90.0973 59.584C90.1019 59.1784 90.1679 58.7887 90.2955 58.415C90.4277 58.0413 90.6168 57.7087 90.8629 57.417C91.1136 57.1253 91.4212 56.8952 91.7858 56.7266C92.1504 56.5534 92.5674 56.4668 93.0368 56.4668C93.4332 56.4668 93.7842 56.5192 94.0895 56.624C94.3994 56.7288 94.6592 56.8906 94.8688 57.1094C95.083 57.3236 95.2448 57.5993 95.3541 57.9365C95.4635 58.2738 95.5182 58.6748 95.5182 59.1396V64H94.2467V59.126C94.2467 58.7113 94.1806 58.39 94.0485 58.1621C93.9209 57.9297 93.7386 57.7679 93.5016 57.6768C93.2692 57.5811 92.9912 57.5332 92.6676 57.5332C92.3896 57.5332 92.1435 57.5811 91.9293 57.6768C91.7151 57.7725 91.5351 57.9046 91.3893 58.0732C91.2435 58.2373 91.1318 58.4264 91.0543 58.6406C90.9814 58.8548 90.945 59.0827 90.945 59.3242ZM98.5963 56.6035V64H97.3248V56.6035H98.5963ZM97.2291 54.6416C97.2291 54.4365 97.2906 54.2633 97.4137 54.1221C97.5413 53.9808 97.7281 53.9102 97.9742 53.9102C98.2157 53.9102 98.4003 53.9808 98.5279 54.1221C98.6601 54.2633 98.7262 54.4365 98.7262 54.6416C98.7262 54.8376 98.6601 55.0062 98.5279 55.1475C98.4003 55.2842 98.2157 55.3525 97.9742 55.3525C97.7281 55.3525 97.5413 55.2842 97.4137 55.1475C97.2906 55.0062 97.2291 54.8376 97.2291 54.6416ZM105.926 62.9609V64H100.546V62.9609H105.926ZM105.728 57.499L100.834 64H100.061V63.0703L104.921 56.6035H105.728V57.499ZM105.168 56.6035V57.6494H100.116V56.6035H105.168ZM110.112 64.1367C109.597 64.1367 109.13 64.0501 108.71 63.877C108.296 63.6992 107.938 63.4508 107.637 63.1318C107.341 62.8128 107.113 62.4346 106.954 61.9971C106.794 61.5596 106.714 61.0811 106.714 60.5615V60.2744C106.714 59.6729 106.803 59.1374 106.981 58.668C107.159 58.194 107.4 57.793 107.706 57.4648C108.011 57.1367 108.357 56.8883 108.745 56.7197C109.132 56.5511 109.533 56.4668 109.948 56.4668C110.476 56.4668 110.932 56.5579 111.315 56.7402C111.702 56.9225 112.019 57.1777 112.265 57.5059C112.511 57.8294 112.694 58.2122 112.812 58.6543C112.931 59.0918 112.99 59.5703 112.99 60.0898V60.6572H107.466V59.625H111.725V59.5293C111.707 59.2012 111.639 58.8822 111.52 58.5723C111.406 58.2624 111.224 58.0072 110.973 57.8066C110.723 57.6061 110.381 57.5059 109.948 57.5059C109.661 57.5059 109.396 57.5674 109.155 57.6904C108.913 57.8089 108.706 57.9867 108.533 58.2236C108.36 58.4606 108.225 58.75 108.129 59.0918C108.034 59.4336 107.986 59.8278 107.986 60.2744V60.5615C107.986 60.9124 108.034 61.2428 108.129 61.5527C108.23 61.8581 108.373 62.127 108.56 62.3594C108.751 62.5918 108.982 62.7741 109.251 62.9062C109.524 63.0384 109.834 63.1045 110.18 63.1045C110.627 63.1045 111.005 63.0133 111.315 62.8311C111.625 62.6488 111.896 62.4049 112.128 62.0996L112.894 62.708C112.735 62.9495 112.532 63.1797 112.286 63.3984C112.04 63.6172 111.737 63.7949 111.376 63.9316C111.021 64.0684 110.599 64.1367 110.112 64.1367ZM118.168 54.0469L120.752 59.0439L123.343 54.0469H124.84L121.409 60.2812V64H120.089V60.2812L116.658 54.0469H118.168ZM124.931 60.3838V60.2266C124.931 59.6934 125.009 59.1989 125.163 58.7432C125.318 58.2829 125.542 57.8841 125.833 57.5469C126.125 57.2051 126.478 56.9408 126.893 56.7539C127.308 56.5625 127.773 56.4668 128.287 56.4668C128.807 56.4668 129.274 56.5625 129.689 56.7539C130.108 56.9408 130.464 57.2051 130.755 57.5469C131.051 57.8841 131.277 58.2829 131.432 58.7432C131.587 59.1989 131.664 59.6934 131.664 60.2266V60.3838C131.664 60.917 131.587 61.4115 131.432 61.8672C131.277 62.3229 131.051 62.7217 130.755 63.0635C130.464 63.4007 130.11 63.665 129.696 63.8564C129.286 64.0433 128.821 64.1367 128.301 64.1367C127.782 64.1367 127.315 64.0433 126.9 63.8564C126.485 63.665 126.13 63.4007 125.833 63.0635C125.542 62.7217 125.318 62.3229 125.163 61.8672C125.009 61.4115 124.931 60.917 124.931 60.3838ZM126.196 60.2266V60.3838C126.196 60.7529 126.239 61.1016 126.326 61.4297C126.412 61.7533 126.542 62.0404 126.715 62.291C126.893 62.5417 127.114 62.7399 127.378 62.8857C127.643 63.027 127.95 63.0977 128.301 63.0977C128.648 63.0977 128.951 63.027 129.21 62.8857C129.475 62.7399 129.693 62.5417 129.867 62.291C130.04 62.0404 130.17 61.7533 130.256 61.4297C130.347 61.1016 130.393 60.7529 130.393 60.3838V60.2266C130.393 59.862 130.347 59.5179 130.256 59.1943C130.17 58.8662 130.037 58.5768 129.86 58.3262C129.687 58.071 129.468 57.8704 129.204 57.7246C128.944 57.5788 128.638 57.5059 128.287 57.5059C127.941 57.5059 127.636 57.5788 127.371 57.7246C127.112 57.8704 126.893 58.071 126.715 58.3262C126.542 58.5768 126.412 58.8662 126.326 59.1943C126.239 59.5179 126.196 59.862 126.196 60.2266ZM137.566 62.291V56.6035H138.837V64H137.627L137.566 62.291ZM137.805 60.7324L138.331 60.7188C138.331 61.2109 138.279 61.6667 138.174 62.0859C138.074 62.5007 137.91 62.8607 137.682 63.166C137.454 63.4714 137.156 63.7106 136.786 63.8838C136.417 64.0524 135.968 64.1367 135.44 64.1367C135.08 64.1367 134.749 64.0843 134.449 63.9795C134.152 63.8747 133.897 63.7129 133.683 63.4941C133.469 63.2754 133.302 62.9906 133.184 62.6396C133.07 62.2887 133.013 61.8672 133.013 61.375V56.6035H134.278V61.3887C134.278 61.7214 134.314 61.9971 134.387 62.2158C134.465 62.43 134.567 62.6009 134.695 62.7285C134.827 62.8516 134.973 62.9382 135.132 62.9883C135.296 63.0384 135.465 63.0635 135.638 63.0635C136.176 63.0635 136.602 62.9609 136.916 62.7559C137.231 62.5462 137.456 62.266 137.593 61.915C137.734 61.5596 137.805 61.1654 137.805 60.7324ZM141.82 57.7656V64H140.555V56.6035H141.785L141.82 57.7656ZM144.13 56.5625L144.123 57.7383C144.019 57.7155 143.918 57.7018 143.823 57.6973C143.731 57.6882 143.627 57.6836 143.508 57.6836C143.216 57.6836 142.959 57.7292 142.736 57.8203C142.512 57.9115 142.323 58.0391 142.168 58.2031C142.013 58.3672 141.89 58.5632 141.799 58.791C141.713 59.0143 141.656 59.2604 141.628 59.5293L141.273 59.7344C141.273 59.2878 141.316 58.8685 141.403 58.4766C141.494 58.0846 141.633 57.7383 141.82 57.4375C142.006 57.1322 142.243 56.8952 142.531 56.7266C142.822 56.5534 143.169 56.4668 143.57 56.4668C143.661 56.4668 143.766 56.4782 143.884 56.501C144.003 56.5192 144.085 56.5397 144.13 56.5625ZM151.947 54.0469V64H150.649V54.0469H151.947ZM155.147 54.0469V55.127H147.456V54.0469H155.147ZM157.596 56.6035V64H156.324V56.6035H157.596ZM156.229 54.6416C156.229 54.4365 156.29 54.2633 156.413 54.1221C156.541 53.9808 156.728 53.9102 156.974 53.9102C157.215 53.9102 157.4 53.9808 157.528 54.1221C157.66 54.2633 157.726 54.4365 157.726 54.6416C157.726 54.8376 157.66 55.0062 157.528 55.1475C157.4 55.2842 157.215 55.3525 156.974 55.3525C156.728 55.3525 156.541 55.2842 156.413 55.1475C156.29 55.0062 156.229 54.8376 156.229 54.6416ZM160.674 58.0732V64H159.402V56.6035H160.606L160.674 58.0732ZM160.414 60.0215L159.826 60.001C159.831 59.4951 159.897 59.028 160.025 58.5996C160.152 58.1667 160.341 57.7907 160.592 57.4717C160.843 57.1527 161.155 56.9066 161.528 56.7334C161.902 56.5557 162.335 56.4668 162.827 56.4668C163.174 56.4668 163.493 56.5169 163.784 56.6172C164.076 56.7129 164.329 56.8656 164.543 57.0752C164.757 57.2848 164.924 57.5537 165.042 57.8818C165.161 58.21 165.22 58.6064 165.22 59.0713V64H163.955V59.1328C163.955 58.7454 163.889 58.4355 163.757 58.2031C163.629 57.9707 163.447 57.8021 163.21 57.6973C162.973 57.5879 162.695 57.5332 162.376 57.5332C162.002 57.5332 161.69 57.5993 161.44 57.7314C161.189 57.8636 160.988 58.0459 160.838 58.2783C160.688 58.5107 160.578 58.7773 160.51 59.0781C160.446 59.3743 160.414 59.6888 160.414 60.0215ZM165.206 59.3242L164.359 59.584C164.363 59.1784 164.429 58.7887 164.557 58.415C164.689 58.0413 164.878 57.7087 165.124 57.417C165.375 57.1253 165.682 56.8952 166.047 56.7266C166.412 56.5534 166.829 56.4668 167.298 56.4668C167.694 56.4668 168.045 56.5192 168.351 56.624C168.661 56.7288 168.92 56.8906 169.13 57.1094C169.344 57.3236 169.506 57.5993 169.615 57.9365C169.725 58.2738 169.779 58.6748 169.779 59.1396V64H168.508V59.126C168.508 58.7113 168.442 58.39 168.31 58.1621C168.182 57.9297 168 57.7679 167.763 57.6768C167.53 57.5811 167.252 57.5332 166.929 57.5332C166.651 57.5332 166.405 57.5811 166.191 57.6768C165.976 57.7725 165.796 57.9046 165.651 58.0732C165.505 58.2373 165.393 58.4264 165.316 58.6406C165.243 58.8548 165.206 59.0827 165.206 59.3242ZM174.553 64.1367C174.038 64.1367 173.571 64.0501 173.151 63.877C172.737 63.6992 172.379 63.4508 172.078 63.1318C171.782 62.8128 171.554 62.4346 171.395 61.9971C171.235 61.5596 171.155 61.0811 171.155 60.5615V60.2744C171.155 59.6729 171.244 59.1374 171.422 58.668C171.6 58.194 171.841 57.793 172.147 57.4648C172.452 57.1367 172.798 56.8883 173.186 56.7197C173.573 56.5511 173.974 56.4668 174.389 56.4668C174.917 56.4668 175.373 56.5579 175.756 56.7402C176.143 56.9225 176.46 57.1777 176.706 57.5059C176.952 57.8294 177.135 58.2122 177.253 58.6543C177.372 59.0918 177.431 59.5703 177.431 60.0898V60.6572H171.907V59.625H176.166V59.5293C176.148 59.2012 176.08 58.8822 175.961 58.5723C175.847 58.2624 175.665 58.0072 175.414 57.8066C175.164 57.6061 174.822 57.5059 174.389 57.5059C174.102 57.5059 173.837 57.5674 173.596 57.6904C173.354 57.8089 173.147 57.9867 172.974 58.2236C172.801 58.4606 172.666 58.75 172.57 59.0918C172.475 59.4336 172.427 59.8278 172.427 60.2744V60.5615C172.427 60.9124 172.475 61.2428 172.57 61.5527C172.671 61.8581 172.814 62.127 173.001 62.3594C173.193 62.5918 173.423 62.7741 173.692 62.9062C173.965 63.0384 174.275 63.1045 174.621 63.1045C175.068 63.1045 175.446 63.0133 175.756 62.8311C176.066 62.6488 176.337 62.4049 176.569 62.0996L177.335 62.708C177.176 62.9495 176.973 63.1797 176.727 63.3984C176.481 63.6172 176.178 63.7949 175.818 63.9316C175.462 64.0684 175.04 64.1367 174.553 64.1367ZM179.846 62.4961V63.5146C179.846 63.9294 179.741 64.3669 179.531 64.8271C179.322 65.292 179.028 65.6794 178.649 65.9893L177.932 65.4902C178.078 65.2897 178.201 65.0846 178.301 64.875C178.401 64.6699 178.476 64.4557 178.526 64.2324C178.581 64.0137 178.608 63.7812 178.608 63.5352V62.4961H179.846ZM185.12 54.0469H186.398L189.659 62.1611L192.913 54.0469H194.198L190.151 64H189.153L185.12 54.0469ZM184.703 54.0469H185.831L186.016 60.1172V64H184.703V54.0469ZM193.48 54.0469H194.608V64H193.296V60.1172L193.48 54.0469ZM197.898 56.6035V64H196.627V56.6035H197.898ZM196.531 54.6416C196.531 54.4365 196.593 54.2633 196.716 54.1221C196.843 53.9808 197.03 53.9102 197.276 53.9102C197.518 53.9102 197.702 53.9808 197.83 54.1221C197.962 54.2633 198.028 54.4365 198.028 54.6416C198.028 54.8376 197.962 55.0062 197.83 55.1475C197.702 55.2842 197.518 55.3525 197.276 55.3525C197.03 55.3525 196.843 55.2842 196.716 55.1475C196.593 55.0062 196.531 54.8376 196.531 54.6416ZM200.983 58.1826V64H199.719V56.6035H200.915L200.983 58.1826ZM200.683 60.0215L200.156 60.001C200.161 59.4951 200.236 59.028 200.382 58.5996C200.528 58.1667 200.733 57.7907 200.997 57.4717C201.261 57.1527 201.576 56.9066 201.94 56.7334C202.309 56.5557 202.717 56.4668 203.164 56.4668C203.529 56.4668 203.857 56.5169 204.148 56.6172C204.44 56.7129 204.688 56.8678 204.893 57.082C205.103 57.2962 205.263 57.5742 205.372 57.916C205.481 58.2533 205.536 58.6657 205.536 59.1533V64H204.265V59.1396C204.265 58.7523 204.208 58.4424 204.094 58.21C203.98 57.973 203.813 57.8021 203.595 57.6973C203.376 57.5879 203.107 57.5332 202.788 57.5332C202.474 57.5332 202.186 57.5993 201.927 57.7314C201.671 57.8636 201.45 58.0459 201.264 58.2783C201.081 58.5107 200.938 58.7773 200.833 59.0781C200.733 59.3743 200.683 59.6888 200.683 60.0215ZM208.621 56.6035V64H207.349V56.6035H208.621ZM207.254 54.6416C207.254 54.4365 207.315 54.2633 207.438 54.1221C207.566 53.9808 207.753 53.9102 207.999 53.9102C208.24 53.9102 208.425 53.9808 208.553 54.1221C208.685 54.2633 208.751 54.4365 208.751 54.6416C208.751 54.8376 208.685 55.0062 208.553 55.1475C208.425 55.2842 208.24 55.3525 207.999 55.3525C207.753 55.3525 207.566 55.2842 207.438 55.1475C207.315 55.0062 207.254 54.8376 207.254 54.6416ZM211.699 58.0732V64H210.428V56.6035H211.631L211.699 58.0732ZM211.439 60.0215L210.851 60.001C210.856 59.4951 210.922 59.028 211.05 58.5996C211.177 58.1667 211.366 57.7907 211.617 57.4717C211.868 57.1527 212.18 56.9066 212.554 56.7334C212.927 56.5557 213.36 56.4668 213.852 56.4668C214.199 56.4668 214.518 56.5169 214.809 56.6172C215.101 56.7129 215.354 56.8656 215.568 57.0752C215.782 57.2848 215.949 57.5537 216.067 57.8818C216.186 58.21 216.245 58.6064 216.245 59.0713V64H214.98V59.1328C214.98 58.7454 214.914 58.4355 214.782 58.2031C214.654 57.9707 214.472 57.8021 214.235 57.6973C213.998 57.5879 213.72 57.5332 213.401 57.5332C213.028 57.5332 212.715 57.5993 212.465 57.7314C212.214 57.8636 212.014 58.0459 211.863 58.2783C211.713 58.5107 211.603 58.7773 211.535 59.0781C211.471 59.3743 211.439 59.6888 211.439 60.0215ZM216.231 59.3242L215.384 59.584C215.388 59.1784 215.454 58.7887 215.582 58.415C215.714 58.0413 215.903 57.7087 216.149 57.417C216.4 57.1253 216.708 56.8952 217.072 56.7266C217.437 56.5534 217.854 56.4668 218.323 56.4668C218.72 56.4668 219.07 56.5192 219.376 56.624C219.686 56.7288 219.945 56.8906 220.155 57.1094C220.369 57.3236 220.531 57.5993 220.64 57.9365C220.75 58.2738 220.805 58.6748 220.805 59.1396V64H219.533V59.126C219.533 58.7113 219.467 58.39 219.335 58.1621C219.207 57.9297 219.025 57.7679 218.788 57.6768C218.556 57.5811 218.278 57.5332 217.954 57.5332C217.676 57.5332 217.43 57.5811 217.216 57.6768C217.001 57.7725 216.821 57.9046 216.676 58.0732C216.53 58.2373 216.418 58.4264 216.341 58.6406C216.268 58.8548 216.231 59.0827 216.231 59.3242ZM223.883 56.6035V64H222.611V56.6035H223.883ZM222.515 54.6416C222.515 54.4365 222.577 54.2633 222.7 54.1221C222.828 53.9808 223.014 53.9102 223.261 53.9102C223.502 53.9102 223.687 53.9808 223.814 54.1221C223.946 54.2633 224.012 54.4365 224.012 54.6416C224.012 54.8376 223.946 55.0062 223.814 55.1475C223.687 55.2842 223.502 55.3525 223.261 55.3525C223.014 55.3525 222.828 55.2842 222.7 55.1475C222.577 55.0062 222.515 54.8376 222.515 54.6416ZM231.213 62.9609V64H225.833V62.9609H231.213ZM231.014 57.499L226.12 64H225.347V63.0703L230.208 56.6035H231.014V57.499ZM230.454 56.6035V57.6494H225.402V56.6035H230.454ZM235.398 64.1367C234.883 64.1367 234.416 64.0501 233.997 63.877C233.582 63.6992 233.224 63.4508 232.924 63.1318C232.627 62.8128 232.399 62.4346 232.24 61.9971C232.08 61.5596 232.001 61.0811 232.001 60.5615V60.2744C232.001 59.6729 232.09 59.1374 232.267 58.668C232.445 58.194 232.687 57.793 232.992 57.4648C233.297 57.1367 233.644 56.8883 234.031 56.7197C234.418 56.5511 234.819 56.4668 235.234 56.4668C235.763 56.4668 236.218 56.5579 236.601 56.7402C236.989 56.9225 237.305 57.1777 237.551 57.5059C237.798 57.8294 237.98 58.2122 238.098 58.6543C238.217 59.0918 238.276 59.5703 238.276 60.0898V60.6572H232.753V59.625H237.011V59.5293C236.993 59.2012 236.925 58.8822 236.806 58.5723C236.692 58.2624 236.51 58.0072 236.259 57.8066C236.009 57.6061 235.667 57.5059 235.234 57.5059C234.947 57.5059 234.683 57.5674 234.441 57.6904C234.2 57.8089 233.992 57.9867 233.819 58.2236C233.646 58.4606 233.511 58.75 233.416 59.0918C233.32 59.4336 233.272 59.8278 233.272 60.2744V60.5615C233.272 60.9124 233.32 61.2428 233.416 61.5527C233.516 61.8581 233.66 62.127 233.846 62.3594C234.038 62.5918 234.268 62.7741 234.537 62.9062C234.81 63.0384 235.12 63.1045 235.467 63.1045C235.913 63.1045 236.291 63.0133 236.601 62.8311C236.911 62.6488 237.182 62.4049 237.415 62.0996L238.18 62.708C238.021 62.9495 237.818 63.1797 237.572 63.3984C237.326 63.6172 237.023 63.7949 236.663 63.9316C236.307 64.0684 235.886 64.1367 235.398 64.1367ZM243.455 54.0469L246.039 59.0439L248.63 54.0469H250.127L246.695 60.2812V64H245.376V60.2812L241.944 54.0469H243.455ZM250.217 60.3838V60.2266C250.217 59.6934 250.295 59.1989 250.45 58.7432C250.605 58.2829 250.828 57.8841 251.12 57.5469C251.411 57.2051 251.765 56.9408 252.179 56.7539C252.594 56.5625 253.059 56.4668 253.574 56.4668C254.093 56.4668 254.56 56.5625 254.975 56.7539C255.394 56.9408 255.75 57.2051 256.042 57.5469C256.338 57.8841 256.563 58.2829 256.718 58.7432C256.873 59.1989 256.951 59.6934 256.951 60.2266V60.3838C256.951 60.917 256.873 61.4115 256.718 61.8672C256.563 62.3229 256.338 62.7217 256.042 63.0635C255.75 63.4007 255.397 63.665 254.982 63.8564C254.572 64.0433 254.107 64.1367 253.587 64.1367C253.068 64.1367 252.601 64.0433 252.186 63.8564C251.771 63.665 251.416 63.4007 251.12 63.0635C250.828 62.7217 250.605 62.3229 250.45 61.8672C250.295 61.4115 250.217 60.917 250.217 60.3838ZM251.482 60.2266V60.3838C251.482 60.7529 251.525 61.1016 251.612 61.4297C251.698 61.7533 251.828 62.0404 252.002 62.291C252.179 62.5417 252.4 62.7399 252.665 62.8857C252.929 63.027 253.237 63.0977 253.587 63.0977C253.934 63.0977 254.237 63.027 254.497 62.8857C254.761 62.7399 254.98 62.5417 255.153 62.291C255.326 62.0404 255.456 61.7533 255.543 61.4297C255.634 61.1016 255.679 60.7529 255.679 60.3838V60.2266C255.679 59.862 255.634 59.5179 255.543 59.1943C255.456 58.8662 255.324 58.5768 255.146 58.3262C254.973 58.071 254.754 57.8704 254.49 57.7246C254.23 57.5788 253.925 57.5059 253.574 57.5059C253.227 57.5059 252.922 57.5788 252.658 57.7246C252.398 57.8704 252.179 58.071 252.002 58.3262C251.828 58.5768 251.698 58.8662 251.612 59.1943C251.525 59.5179 251.482 59.862 251.482 60.2266ZM262.852 62.291V56.6035H264.124V64H262.914L262.852 62.291ZM263.091 60.7324L263.618 60.7188C263.618 61.2109 263.565 61.6667 263.461 62.0859C263.36 62.5007 263.196 62.8607 262.968 63.166C262.74 63.4714 262.442 63.7106 262.073 63.8838C261.704 64.0524 261.255 64.1367 260.726 64.1367C260.366 64.1367 260.036 64.0843 259.735 63.9795C259.439 63.8747 259.183 63.7129 258.969 63.4941C258.755 63.2754 258.589 62.9906 258.47 62.6396C258.356 62.2887 258.299 61.8672 258.299 61.375V56.6035H259.564V61.3887C259.564 61.7214 259.6 61.9971 259.673 62.2158C259.751 62.43 259.853 62.6009 259.981 62.7285C260.113 62.8516 260.259 62.9382 260.419 62.9883C260.583 63.0384 260.751 63.0635 260.924 63.0635C261.462 63.0635 261.888 62.9609 262.203 62.7559C262.517 62.5462 262.743 62.266 262.879 61.915C263.021 61.5596 263.091 61.1654 263.091 60.7324ZM267.106 57.7656V64H265.841V56.6035H267.072L267.106 57.7656ZM269.417 56.5625L269.41 57.7383C269.305 57.7155 269.205 57.7018 269.109 57.6973C269.018 57.6882 268.913 57.6836 268.794 57.6836C268.503 57.6836 268.245 57.7292 268.022 57.8203C267.799 57.9115 267.61 58.0391 267.455 58.2031C267.3 58.3672 267.177 58.5632 267.085 58.791C266.999 59.0143 266.942 59.2604 266.915 59.5293L266.559 59.7344C266.559 59.2878 266.602 58.8685 266.689 58.4766C266.78 58.0846 266.919 57.7383 267.106 57.4375C267.293 57.1322 267.53 56.8952 267.817 56.7266C268.109 56.5534 268.455 56.4668 268.856 56.4668C268.947 56.4668 269.052 56.4782 269.17 56.501C269.289 56.5192 269.371 56.5397 269.417 56.5625ZM276.448 60.9922L278.423 54.0469H279.38L278.827 56.7471L276.701 64H275.75L276.448 60.9922ZM274.404 54.0469L275.976 60.8555L276.448 64H275.504L273.091 54.0469H274.404ZM281.937 60.8486L283.475 54.0469H284.794L282.388 64H281.445L281.937 60.8486ZM279.524 54.0469L281.445 60.9922L282.142 64H281.192L279.141 56.7471L278.581 54.0469H279.524ZM285.302 60.3838V60.2266C285.302 59.6934 285.38 59.1989 285.535 58.7432C285.69 58.2829 285.913 57.8841 286.204 57.5469C286.496 57.2051 286.849 56.9408 287.264 56.7539C287.679 56.5625 288.144 56.4668 288.659 56.4668C289.178 56.4668 289.645 56.5625 290.06 56.7539C290.479 56.9408 290.835 57.2051 291.126 57.5469C291.423 57.8841 291.648 58.2829 291.803 58.7432C291.958 59.1989 292.036 59.6934 292.036 60.2266V60.3838C292.036 60.917 291.958 61.4115 291.803 61.8672C291.648 62.3229 291.423 62.7217 291.126 63.0635C290.835 63.4007 290.482 63.665 290.067 63.8564C289.657 64.0433 289.192 64.1367 288.672 64.1367C288.153 64.1367 287.686 64.0433 287.271 63.8564C286.856 63.665 286.501 63.4007 286.204 63.0635C285.913 62.7217 285.69 62.3229 285.535 61.8672C285.38 61.4115 285.302 60.917 285.302 60.3838ZM286.567 60.2266V60.3838C286.567 60.7529 286.61 61.1016 286.697 61.4297C286.783 61.7533 286.913 62.0404 287.086 62.291C287.264 62.5417 287.485 62.7399 287.749 62.8857C288.014 63.027 288.321 63.0977 288.672 63.0977C289.019 63.0977 289.322 63.027 289.581 62.8857C289.846 62.7399 290.065 62.5417 290.238 62.291C290.411 62.0404 290.541 61.7533 290.627 61.4297C290.718 61.1016 290.764 60.7529 290.764 60.3838V60.2266C290.764 59.862 290.718 59.5179 290.627 59.1943C290.541 58.8662 290.409 58.5768 290.231 58.3262C290.058 58.071 289.839 57.8704 289.575 57.7246C289.315 57.5788 289.009 57.5059 288.659 57.5059C288.312 57.5059 288.007 57.5788 287.743 57.7246C287.483 57.8704 287.264 58.071 287.086 58.3262C286.913 58.5768 286.783 58.8662 286.697 59.1943C286.61 59.5179 286.567 59.862 286.567 60.2266ZM294.676 57.7656V64H293.411V56.6035H294.642L294.676 57.7656ZM296.987 56.5625L296.98 57.7383C296.875 57.7155 296.775 57.7018 296.679 57.6973C296.588 57.6882 296.483 57.6836 296.365 57.6836C296.073 57.6836 295.815 57.7292 295.592 57.8203C295.369 57.9115 295.18 58.0391 295.025 58.2031C294.87 58.3672 294.747 58.5632 294.656 58.791C294.569 59.0143 294.512 59.2604 294.485 59.5293L294.129 59.7344C294.129 59.2878 294.173 58.8685 294.259 58.4766C294.35 58.0846 294.489 57.7383 294.676 57.4375C294.863 57.1322 295.1 56.8952 295.387 56.7266C295.679 56.5534 296.025 56.4668 296.426 56.4668C296.517 56.4668 296.622 56.4782 296.741 56.501C296.859 56.5192 296.941 56.5397 296.987 56.5625ZM299.21 57.7656V64H297.946V56.6035H299.176L299.21 57.7656ZM301.521 56.5625L301.514 57.7383C301.409 57.7155 301.309 57.7018 301.213 57.6973C301.122 57.6882 301.017 57.6836 300.899 57.6836C300.607 57.6836 300.35 57.7292 300.126 57.8203C299.903 57.9115 299.714 58.0391 299.559 58.2031C299.404 58.3672 299.281 58.5632 299.19 58.791C299.103 59.0143 299.046 59.2604 299.019 59.5293L298.663 59.7344C298.663 59.2878 298.707 58.8685 298.793 58.4766C298.884 58.0846 299.023 57.7383 299.21 57.4375C299.397 57.1322 299.634 56.8952 299.921 56.7266C300.213 56.5534 300.559 56.4668 300.96 56.4668C301.051 56.4668 301.156 56.4782 301.275 56.501C301.393 56.5192 301.475 56.5397 301.521 56.5625ZM303.854 56.6035V64H302.582V56.6035H303.854ZM302.487 54.6416C302.487 54.4365 302.548 54.2633 302.671 54.1221C302.799 53.9808 302.986 53.9102 303.232 53.9102C303.473 53.9102 303.658 53.9808 303.785 54.1221C303.918 54.2633 303.984 54.4365 303.984 54.6416C303.984 54.8376 303.918 55.0062 303.785 55.1475C303.658 55.2842 303.473 55.3525 303.232 55.3525C302.986 55.3525 302.799 55.2842 302.671 55.1475C302.548 55.0062 302.487 54.8376 302.487 54.6416ZM308.743 64.1367C308.228 64.1367 307.761 64.0501 307.342 63.877C306.927 63.6992 306.57 63.4508 306.269 63.1318C305.973 62.8128 305.745 62.4346 305.585 61.9971C305.426 61.5596 305.346 61.0811 305.346 60.5615V60.2744C305.346 59.6729 305.435 59.1374 305.613 58.668C305.79 58.194 306.032 57.793 306.337 57.4648C306.642 57.1367 306.989 56.8883 307.376 56.7197C307.764 56.5511 308.165 56.4668 308.579 56.4668C309.108 56.4668 309.564 56.5579 309.947 56.7402C310.334 56.9225 310.651 57.1777 310.897 57.5059C311.143 57.8294 311.325 58.2122 311.444 58.6543C311.562 59.0918 311.621 59.5703 311.621 60.0898V60.6572H306.098V59.625H310.357V59.5293C310.338 59.2012 310.27 58.8822 310.152 58.5723C310.038 58.2624 309.855 58.0072 309.605 57.8066C309.354 57.6061 309.012 57.5059 308.579 57.5059C308.292 57.5059 308.028 57.5674 307.786 57.6904C307.545 57.8089 307.337 57.9867 307.164 58.2236C306.991 58.4606 306.857 58.75 306.761 59.0918C306.665 59.4336 306.617 59.8278 306.617 60.2744V60.5615C306.617 60.9124 306.665 61.2428 306.761 61.5527C306.861 61.8581 307.005 62.127 307.192 62.3594C307.383 62.5918 307.613 62.7741 307.882 62.9062C308.156 63.0384 308.465 63.1045 308.812 63.1045C309.258 63.1045 309.637 63.0133 309.947 62.8311C310.256 62.6488 310.528 62.4049 310.76 62.0996L311.526 62.708C311.366 62.9495 311.163 63.1797 310.917 63.3984C310.671 63.6172 310.368 63.7949 310.008 63.9316C309.653 64.0684 309.231 64.1367 308.743 64.1367ZM317.195 62.0381C317.195 61.8558 317.154 61.6872 317.071 61.5322C316.994 61.3727 316.832 61.2292 316.586 61.1016C316.345 60.9694 315.98 60.8555 315.492 60.7598C315.082 60.6732 314.711 60.5706 314.378 60.4521C314.05 60.3337 313.77 60.1901 313.537 60.0215C313.309 59.8529 313.134 59.6546 313.011 59.4268C312.888 59.1989 312.826 58.9323 312.826 58.627C312.826 58.3353 312.89 58.0596 313.018 57.7998C313.15 57.54 313.334 57.3099 313.571 57.1094C313.813 56.9089 314.102 56.7516 314.44 56.6377C314.777 56.5238 315.153 56.4668 315.568 56.4668C316.16 56.4668 316.666 56.5716 317.085 56.7812C317.504 56.9909 317.826 57.2712 318.049 57.6221C318.272 57.9684 318.384 58.3535 318.384 58.7773H317.119C317.119 58.5723 317.058 58.374 316.935 58.1826C316.816 57.9867 316.641 57.8249 316.408 57.6973C316.181 57.5697 315.9 57.5059 315.568 57.5059C315.217 57.5059 314.932 57.5605 314.713 57.6699C314.499 57.7747 314.342 57.9092 314.241 58.0732C314.146 58.2373 314.098 58.4105 314.098 58.5928C314.098 58.7295 314.121 58.8525 314.166 58.9619C314.216 59.0667 314.303 59.1647 314.426 59.2559C314.549 59.3424 314.722 59.4245 314.945 59.502C315.169 59.5794 315.454 59.6569 315.8 59.7344C316.406 59.8711 316.905 60.0352 317.297 60.2266C317.689 60.418 317.981 60.6527 318.172 60.9307C318.363 61.2087 318.459 61.5459 318.459 61.9424C318.459 62.266 318.391 62.5622 318.254 62.8311C318.122 63.0999 317.928 63.3324 317.673 63.5283C317.422 63.7197 317.122 63.8701 316.771 63.9795C316.424 64.0843 316.035 64.1367 315.602 64.1367C314.95 64.1367 314.399 64.0205 313.947 63.7881C313.496 63.5557 313.154 63.2549 312.922 62.8857C312.69 62.5166 312.573 62.127 312.573 61.7168H313.845C313.863 62.0632 313.963 62.3389 314.146 62.5439C314.328 62.7445 314.551 62.888 314.816 62.9746C315.08 63.0566 315.342 63.0977 315.602 63.0977C315.948 63.0977 316.237 63.0521 316.47 62.9609C316.707 62.8698 316.887 62.7445 317.01 62.585C317.133 62.4255 317.195 62.2432 317.195 62.0381Z" fill="black"/>
<path d="M19.8499 12.5933H27.848V20.0786H12.7064C12.1823 20.0786 11.7379 20.2609 11.3734 20.6255C11.0088 20.9673 10.8265 21.3888 10.8265 21.8901C10.8265 22.4142 11.0088 22.8586 11.3734 23.2231C11.7379 23.5877 12.1823 23.77 12.7064 23.77H20.4993C21.7754 23.77 22.9717 23.9865 24.0882 24.4194C25.2275 24.8524 26.2187 25.4562 27.0618 26.231C27.9049 27.0057 28.5657 27.9285 29.0443 28.9995C29.5456 30.0705 29.7962 31.244 29.7962 32.52C29.7962 33.8188 29.5456 35.0379 29.0443 36.1772C28.5657 37.3166 27.9049 38.3078 27.0618 39.1509C26.2187 39.9712 25.2275 40.632 24.0882 41.1333C22.9717 41.6118 21.7754 41.8511 20.4993 41.8511H19.8499V52.3442H13.5609V41.8511H3.4095V34.4341H20.4993C20.9779 34.4341 21.3994 34.2518 21.764 33.8872C22.1286 33.4998 22.3109 33.0441 22.3109 32.52C22.3109 31.9959 22.1286 31.6655 21.764 31.5288C21.3994 31.3693 20.9779 31.2896 20.4993 31.2896H12.7064C11.4075 31.2896 10.1885 31.0503 9.04915 30.5718C7.93261 30.0705 6.95279 29.3983 6.10969 28.5552C5.28938 27.6893 4.62857 26.6867 4.12727 25.5474C3.64876 24.408 3.4095 23.189 3.4095 21.8901C3.4095 20.6141 3.64876 19.4178 4.12727 18.3013C4.62857 17.1619 5.28938 16.1707 6.10969 15.3276C6.95279 14.4845 7.93261 13.8237 9.04915 13.3452C10.1885 12.8439 11.4075 12.5933 12.7064 12.5933H13.5609V3.33057H19.8499V12.5933Z" fill="#18181B"/>
<path d="M18.8582 10.249H26.8563V17.7344H11.7147C11.1906 17.7344 10.7462 17.9167 10.3817 18.2812C10.0171 18.623 9.83479 19.0446 9.83479 19.5459C9.83479 20.07 10.0171 20.5143 10.3817 20.8789C10.7462 21.2435 11.1906 21.4258 11.7147 21.4258H19.5076C20.7837 21.4258 21.98 21.6423 23.0965 22.0752C24.2358 22.5081 25.227 23.112 26.0701 23.8867C26.9132 24.6615 27.574 25.5843 28.0526 26.6553C28.5539 27.7262 28.8045 28.8997 28.8045 30.1758C28.8045 31.4746 28.5539 32.6937 28.0526 33.833C27.574 34.9723 26.9132 35.9635 26.0701 36.8066C25.227 37.627 24.2358 38.2878 23.0965 38.7891C21.98 39.2676 20.7837 39.5068 19.5076 39.5068H18.8582V50H12.5692V39.5068H2.4178V32.0898H19.5076C19.9862 32.0898 20.4077 31.9076 20.7723 31.543C21.1369 31.1556 21.3192 30.6999 21.3192 30.1758C21.3192 29.6517 21.1369 29.3213 20.7723 29.1846C20.4077 29.0251 19.9862 28.9453 19.5076 28.9453H11.7147C10.4158 28.9453 9.19677 28.7061 8.05745 28.2275C6.94091 27.7262 5.96109 27.054 5.11799 26.2109C4.29768 25.3451 3.63687 24.3424 3.13557 23.2031C2.65706 22.0638 2.4178 20.8447 2.4178 19.5459C2.4178 18.2699 2.65706 17.0736 3.13557 15.957C3.63687 14.8177 4.29768 13.8265 5.11799 12.9834C5.96109 12.1403 6.94091 11.4795 8.05745 11.001C9.19677 10.4997 10.4158 10.249 11.7147 10.249H12.5692V0.986328H18.8582V10.249Z" fill="#86EFAC"/>
<path d="M60.983 30.4414C60.983 31.4844 60.7838 32.4629 60.3854 33.377C59.987 34.291 59.442 35.0938 58.7506 35.7852C58.0709 36.4648 57.2741 37.0039 56.36 37.4023C55.4459 37.8008 54.4674 38 53.4245 38H40.8209V12.793H53.4245C54.4674 12.793 55.4459 12.9922 56.36 13.3906C57.2741 13.7891 58.0709 14.334 58.7506 15.0254C59.442 15.7051 59.987 16.502 60.3854 17.416C60.7838 18.3301 60.983 19.3086 60.983 20.3516C60.983 20.8203 60.9186 21.3008 60.7897 21.793C60.6608 22.2852 60.4791 22.7598 60.2448 23.2168C60.0104 23.6738 59.7291 24.0898 59.401 24.4648C59.0729 24.8398 58.7096 25.1504 58.3112 25.3965C58.7213 25.6191 59.0905 25.9238 59.4186 26.3105C59.7467 26.6855 60.028 27.1016 60.2623 27.5586C60.4967 28.0156 60.6725 28.4961 60.7897 29C60.9186 29.4922 60.983 29.9727 60.983 30.4414ZM45.8659 32.9551H53.4245C53.776 32.9551 54.1041 32.8906 54.4088 32.7617C54.7135 32.6328 54.9772 32.457 55.1998 32.2344C55.4342 32 55.6159 31.7305 55.7448 31.4258C55.8737 31.1211 55.9381 30.793 55.9381 30.4414C55.9381 30.0898 55.8737 29.7617 55.7448 29.457C55.6159 29.1523 55.4342 28.8887 55.1998 28.666C54.9772 28.4316 54.7135 28.25 54.4088 28.1211C54.1041 27.9922 53.776 27.9277 53.4245 27.9277H45.8659V32.9551ZM45.8659 22.8828H53.4245C53.776 22.8828 54.1041 22.8184 54.4088 22.6895C54.7135 22.5605 54.9772 22.3848 55.1998 22.1621C55.4342 21.9277 55.6159 21.6582 55.7448 21.3535C55.8737 21.0371 55.9381 20.7031 55.9381 20.3516C55.9381 20 55.8737 19.6719 55.7448 19.3672C55.6159 19.0625 55.4342 18.7988 55.1998 18.5762C54.9772 18.3418 54.7135 18.1602 54.4088 18.0312C54.1041 17.9023 53.776 17.8379 53.4245 17.8379H45.8659V22.8828ZM77.5817 35.8027C77.195 36.1543 76.779 36.4883 76.3337 36.8047C75.9001 37.1094 75.443 37.3789 74.9626 37.6133C74.4821 37.8359 73.9841 38.0117 73.4684 38.1406C72.9645 38.2812 72.4489 38.3516 71.9216 38.3516C70.7614 38.3516 69.6716 38.1465 68.652 37.7363C67.6325 37.3262 66.736 36.7461 65.9626 35.9961C65.2009 35.2344 64.5973 34.3145 64.152 33.2363C63.7184 32.1465 63.5016 30.9277 63.5016 29.5801V19.1738H68.2829V29.5801C68.2829 30.2129 68.3766 30.7812 68.5641 31.2852C68.7634 31.7773 69.027 32.1934 69.3552 32.5332C69.6833 32.873 70.0641 33.1309 70.4977 33.3066C70.943 33.4824 71.4177 33.5703 71.9216 33.5703C72.4137 33.5703 72.8766 33.459 73.3102 33.2363C73.7555 33.002 74.1423 32.6973 74.4704 32.3223C74.7985 31.9473 75.0563 31.5254 75.2438 31.0566C75.4313 30.5762 75.5251 30.084 75.5251 29.5801V19.1738H80.3239V38H79.1637L77.5817 35.8027ZM89.1179 14.0586C89.1179 14.5039 89.03 14.9199 88.8542 15.3066C88.6902 15.6934 88.4616 16.0332 88.1687 16.3262C87.8757 16.6074 87.53 16.8359 87.1316 17.0117C86.7448 17.1758 86.3288 17.2578 85.8835 17.2578C85.4382 17.2578 85.0163 17.1758 84.6179 17.0117C84.2312 16.8359 83.8913 16.6074 83.5984 16.3262C83.3171 16.0332 83.0886 15.6934 82.9128 15.3066C82.7487 14.9199 82.6667 14.5039 82.6667 14.0586C82.6667 13.625 82.7487 13.2148 82.9128 12.8281C83.0886 12.4297 83.3171 12.0898 83.5984 11.8086C83.8913 11.5156 84.2312 11.2871 84.6179 11.123C85.0163 10.9473 85.4382 10.8594 85.8835 10.8594C86.3288 10.8594 86.7448 10.9473 87.1316 11.123C87.53 11.2871 87.8757 11.5156 88.1687 11.8086C88.4616 12.0898 88.6902 12.4297 88.8542 12.8281C89.03 13.2148 89.1179 13.625 89.1179 14.0586ZM88.2917 38H83.4577V19.1738H88.2917V38ZM96.2595 38H91.4255V11.6855H96.2595V38ZM117.587 38H116.427L114.563 35.416C114.106 35.8262 113.62 36.2129 113.104 36.5762C112.6 36.9277 112.067 37.2383 111.505 37.5078C110.942 37.7656 110.362 37.9707 109.764 38.123C109.179 38.2754 108.581 38.3516 107.971 38.3516C106.647 38.3516 105.399 38.1055 104.227 37.6133C103.067 37.1094 102.048 36.418 101.169 35.5391C100.302 34.6484 99.616 33.5996 99.1121 32.3926C98.6082 31.1738 98.3563 29.8496 98.3563 28.4199C98.3563 27.002 98.6082 25.6836 99.1121 24.4648C99.616 23.2461 100.302 22.1914 101.169 21.3008C102.048 20.4102 103.067 19.7129 104.227 19.209C105.399 18.7051 106.647 18.4531 107.971 18.4531C108.393 18.4531 108.827 18.4883 109.272 18.5586C109.729 18.6289 110.169 18.7461 110.591 18.9102C111.024 19.0625 111.429 19.2676 111.804 19.5254C112.179 19.7832 112.495 20.0996 112.753 20.4746V11.6855H117.587V38ZM112.753 28.4199C112.753 27.7637 112.624 27.1309 112.366 26.5215C112.12 25.9004 111.78 25.3555 111.346 24.8867C110.913 24.4062 110.403 24.0254 109.817 23.7441C109.243 23.4512 108.628 23.3047 107.971 23.3047C107.315 23.3047 106.694 23.4219 106.108 23.6562C105.534 23.8906 105.03 24.2305 104.596 24.6758C104.175 25.1094 103.841 25.6426 103.595 26.2754C103.348 26.9082 103.225 27.623 103.225 28.4199C103.225 29.1113 103.348 29.7676 103.595 30.3887C103.841 31.0098 104.175 31.5547 104.596 32.0234C105.03 32.4922 105.534 32.8613 106.108 33.1309C106.694 33.4004 107.315 33.5352 107.971 33.5352C108.628 33.5352 109.243 33.3945 109.817 33.1133C110.403 32.8203 110.913 32.4395 111.346 31.9707C111.78 31.4902 112.12 30.9453 112.366 30.3359C112.624 29.7148 112.753 29.0762 112.753 28.4199ZM129.304 20.3516C129.304 19.3086 129.503 18.3301 129.901 17.416C130.3 16.502 130.839 15.7051 131.518 15.0254C132.21 14.334 133.013 13.7891 133.927 13.3906C134.841 12.9922 135.819 12.793 136.862 12.793H148.429V17.8379H136.862C136.511 17.8379 136.183 17.9023 135.878 18.0312C135.573 18.1602 135.304 18.3418 135.069 18.5762C134.847 18.7988 134.671 19.0625 134.542 19.3672C134.413 19.6719 134.349 20 134.349 20.3516C134.349 20.7031 134.413 21.0371 134.542 21.3535C134.671 21.6582 134.847 21.9277 135.069 22.1621C135.304 22.3848 135.573 22.5605 135.878 22.6895C136.183 22.8184 136.511 22.8828 136.862 22.8828H141.907C142.95 22.8828 143.929 23.082 144.843 23.4805C145.768 23.8672 146.571 24.4062 147.251 25.0977C147.942 25.7773 148.481 26.5801 148.868 27.5059C149.266 28.4199 149.466 29.3984 149.466 30.4414C149.466 31.4844 149.266 32.4629 148.868 33.377C148.481 34.291 147.942 35.0938 147.251 35.7852C146.571 36.4648 145.768 37.0039 144.843 37.4023C143.929 37.8008 142.95 38 141.907 38H130.71V32.9551H141.907C142.259 32.9551 142.587 32.8906 142.891 32.7617C143.196 32.6328 143.46 32.457 143.683 32.2344C143.917 32 144.099 31.7305 144.227 31.4258C144.356 31.1211 144.421 30.793 144.421 30.4414C144.421 30.0898 144.356 29.7617 144.227 29.457C144.099 29.1523 143.917 28.8887 143.683 28.666C143.46 28.4316 143.196 28.25 142.891 28.1211C142.587 27.9922 142.259 27.9277 141.907 27.9277H136.862C135.819 27.9277 134.841 27.7285 133.927 27.3301C133.013 26.9316 132.21 26.3926 131.518 25.7129C130.839 25.0215 130.3 24.2188 129.901 23.3047C129.503 22.3789 129.304 21.3945 129.304 20.3516ZM159.226 33.3945C159.414 33.4531 159.601 33.4941 159.789 33.5176C159.976 33.5293 160.164 33.5352 160.351 33.5352C160.82 33.5352 161.271 33.4707 161.705 33.3418C162.139 33.2129 162.543 33.0312 162.918 32.7969C163.305 32.5508 163.644 32.2578 163.937 31.918C164.242 31.5664 164.488 31.1797 164.676 30.7578L168.191 34.291C167.746 34.9238 167.23 35.4922 166.644 35.9961C166.07 36.5 165.443 36.9277 164.764 37.2793C164.096 37.6309 163.387 37.8945 162.637 38.0703C161.898 38.2578 161.137 38.3516 160.351 38.3516C159.027 38.3516 157.779 38.1055 156.607 37.6133C155.447 37.1211 154.428 36.4355 153.549 35.5566C152.682 34.6777 151.996 33.6348 151.492 32.4277C150.988 31.209 150.736 29.873 150.736 28.4199C150.736 26.9316 150.988 25.5723 151.492 24.3418C151.996 23.1113 152.682 22.0625 153.549 21.1953C154.428 20.3281 155.447 19.6543 156.607 19.1738C157.779 18.6934 159.027 18.4531 160.351 18.4531C161.137 18.4531 161.904 18.5469 162.654 18.7344C163.404 18.9219 164.113 19.1914 164.781 19.543C165.461 19.8945 166.094 20.3281 166.68 20.8438C167.266 21.3477 167.781 21.916 168.226 22.5488L159.226 33.3945ZM161.687 23.498C161.465 23.416 161.242 23.3633 161.019 23.3398C160.809 23.3164 160.586 23.3047 160.351 23.3047C159.695 23.3047 159.074 23.4277 158.488 23.6738C157.914 23.9082 157.41 24.248 156.976 24.6934C156.555 25.1387 156.221 25.6777 155.975 26.3105C155.728 26.9316 155.605 27.6348 155.605 28.4199C155.605 28.5957 155.611 28.7949 155.623 29.0176C155.646 29.2402 155.676 29.4688 155.711 29.7031C155.758 29.9258 155.81 30.1426 155.869 30.3535C155.928 30.5645 156.004 30.752 156.098 30.916L161.687 23.498ZM174.946 38H170.112V11.6855H174.946V38ZM184.18 38H179.381V23.9551H177.043V19.1738H179.381V18.2773C179.381 17.1172 179.598 16.0273 180.031 15.0078C180.477 13.9883 181.08 13.1035 181.842 12.3535C182.615 11.5918 183.512 10.9941 184.531 10.5605C185.551 10.1152 186.641 9.89258 187.801 9.89258H191.404V14.6738H187.801C187.285 14.6738 186.805 14.7676 186.359 14.9551C185.926 15.1309 185.545 15.3828 185.217 15.7109C184.9 16.0273 184.648 16.4082 184.461 16.8535C184.273 17.2871 184.18 17.7617 184.18 18.2773V19.1738H190.068V23.9551H184.18V38ZM206.878 22.8828V27.6641H192.112V22.8828H206.878ZM215.883 17.8379V27.9277H220.928C221.619 27.9277 222.27 27.7988 222.879 27.541C223.488 27.2715 224.022 26.9082 224.479 26.4512C224.936 25.9941 225.293 25.4609 225.551 24.8516C225.82 24.2305 225.955 23.5742 225.955 22.8828C225.955 22.1914 225.82 21.541 225.551 20.9316C225.293 20.3105 224.936 19.7715 224.479 19.3145C224.022 18.8574 223.488 18.5 222.879 18.2422C222.27 17.9727 221.619 17.8379 220.928 17.8379H215.883ZM215.883 38H210.838V12.793H220.928C221.854 12.793 222.744 12.916 223.6 13.1621C224.455 13.3965 225.252 13.7363 225.99 14.1816C226.74 14.6152 227.42 15.1426 228.029 15.7637C228.65 16.373 229.178 17.0527 229.611 17.8027C230.057 18.5527 230.397 19.3555 230.631 20.2109C230.877 21.0664 231 21.957 231 22.8828C231 23.75 230.889 24.5938 230.666 25.4141C230.455 26.2344 230.145 27.0137 229.734 27.752C229.336 28.4902 228.844 29.1699 228.258 29.791C227.672 30.4121 227.016 30.9512 226.289 31.4082L229.084 38H223.723L221.525 32.9199L215.883 32.9551V38ZM240.55 33.3945C240.737 33.4531 240.925 33.4941 241.112 33.5176C241.3 33.5293 241.487 33.5352 241.675 33.5352C242.144 33.5352 242.595 33.4707 243.028 33.3418C243.462 33.2129 243.866 33.0312 244.241 32.7969C244.628 32.5508 244.968 32.2578 245.261 31.918C245.566 31.5664 245.812 31.1797 245.999 30.7578L249.515 34.291C249.069 34.9238 248.554 35.4922 247.968 35.9961C247.394 36.5 246.767 36.9277 246.087 37.2793C245.419 37.6309 244.71 37.8945 243.96 38.0703C243.222 38.2578 242.46 38.3516 241.675 38.3516C240.351 38.3516 239.103 38.1055 237.931 37.6133C236.771 37.1211 235.751 36.4355 234.872 35.5566C234.005 34.6777 233.319 33.6348 232.816 32.4277C232.312 31.209 232.06 29.873 232.06 28.4199C232.06 26.9316 232.312 25.5723 232.816 24.3418C233.319 23.1113 234.005 22.0625 234.872 21.1953C235.751 20.3281 236.771 19.6543 237.931 19.1738C239.103 18.6934 240.351 18.4531 241.675 18.4531C242.46 18.4531 243.228 18.5469 243.978 18.7344C244.728 18.9219 245.437 19.1914 246.105 19.543C246.784 19.8945 247.417 20.3281 248.003 20.8438C248.589 21.3477 249.105 21.916 249.55 22.5488L240.55 33.3945ZM243.011 23.498C242.788 23.416 242.566 23.3633 242.343 23.3398C242.132 23.3164 241.909 23.3047 241.675 23.3047C241.019 23.3047 240.398 23.4277 239.812 23.6738C239.237 23.9082 238.734 24.248 238.3 24.6934C237.878 25.1387 237.544 25.6777 237.298 26.3105C237.052 26.9316 236.929 27.6348 236.929 28.4199C236.929 28.5957 236.935 28.7949 236.946 29.0176C236.97 29.2402 236.999 29.4688 237.034 29.7031C237.081 29.9258 237.134 30.1426 237.193 30.3535C237.251 30.5645 237.327 30.752 237.421 30.916L243.011 23.498ZM256.27 38H251.436V11.6855H256.27V38ZM265.064 14.0586C265.064 14.5039 264.976 14.9199 264.8 15.3066C264.636 15.6934 264.407 16.0332 264.114 16.3262C263.821 16.6074 263.476 16.8359 263.077 17.0117C262.691 17.1758 262.275 17.2578 261.829 17.2578C261.384 17.2578 260.962 17.1758 260.564 17.0117C260.177 16.8359 259.837 16.6074 259.544 16.3262C259.263 16.0332 259.034 15.6934 258.859 15.3066C258.695 14.9199 258.613 14.5039 258.613 14.0586C258.613 13.625 258.695 13.2148 258.859 12.8281C259.034 12.4297 259.263 12.0898 259.544 11.8086C259.837 11.5156 260.177 11.2871 260.564 11.123C260.962 10.9473 261.384 10.8594 261.829 10.8594C262.275 10.8594 262.691 10.9473 263.077 11.123C263.476 11.2871 263.821 11.5156 264.114 11.8086C264.407 12.0898 264.636 12.4297 264.8 12.8281C264.976 13.2148 265.064 13.625 265.064 14.0586ZM264.238 38H259.404V19.1738H264.238V38ZM285.6 38H284.44L282.576 35.416C282.119 35.8262 281.633 36.2129 281.117 36.5762C280.614 36.9277 280.08 37.2383 279.518 37.5078C278.955 37.7656 278.375 37.9707 277.778 38.123C277.192 38.2754 276.594 38.3516 275.985 38.3516C274.66 38.3516 273.412 38.1289 272.24 37.6836C271.08 37.2383 270.061 36.5938 269.182 35.75C268.315 34.8945 267.629 33.8516 267.125 32.6211C266.621 31.3906 266.369 29.9902 266.369 28.4199C266.369 26.9551 266.621 25.6133 267.125 24.3945C267.629 23.1641 268.315 22.1094 269.182 21.2305C270.061 20.3516 271.08 19.6719 272.24 19.1914C273.412 18.6992 274.66 18.4531 275.985 18.4531C276.594 18.4531 277.197 18.5293 277.795 18.6816C278.393 18.834 278.973 19.0449 279.535 19.3145C280.098 19.584 280.631 19.9004 281.135 20.2637C281.651 20.627 282.131 21.0195 282.576 21.4414L284.44 19.209H285.6V38ZM280.766 28.4199C280.766 27.7637 280.637 27.1309 280.379 26.5215C280.133 25.9004 279.793 25.3555 279.36 24.8867C278.926 24.4062 278.416 24.0254 277.83 23.7441C277.256 23.4512 276.641 23.3047 275.985 23.3047C275.328 23.3047 274.707 23.416 274.121 23.6387C273.547 23.8613 273.043 24.1895 272.61 24.623C272.188 25.0566 271.854 25.5957 271.608 26.2402C271.362 26.873 271.239 27.5996 271.239 28.4199C271.239 29.2402 271.362 29.9727 271.608 30.6172C271.854 31.25 272.188 31.7832 272.61 32.2168C273.043 32.6504 273.547 32.9785 274.121 33.2012C274.707 33.4238 275.328 33.5352 275.985 33.5352C276.641 33.5352 277.256 33.3945 277.83 33.1133C278.416 32.8203 278.926 32.4395 279.36 31.9707C279.793 31.4902 280.133 30.9453 280.379 30.3359C280.637 29.7148 280.766 29.0762 280.766 28.4199ZM293.533 38H288.734V19.1738H289.894L291.476 21.002C292.249 20.2988 293.122 19.7598 294.095 19.3848C295.079 18.998 296.105 18.8047 297.171 18.8047C298.32 18.8047 299.404 19.0273 300.423 19.4727C301.443 19.9062 302.333 20.5098 303.095 21.2832C303.857 22.0449 304.454 22.9414 304.888 23.9727C305.333 24.9922 305.556 26.082 305.556 27.2422V38H300.757V27.2422C300.757 26.75 300.663 26.2871 300.476 25.8535C300.288 25.4082 300.031 25.0215 299.702 24.6934C299.374 24.3652 298.993 24.1074 298.56 23.9199C298.126 23.7324 297.663 23.6387 297.171 23.6387C296.667 23.6387 296.193 23.7324 295.747 23.9199C295.302 24.1074 294.915 24.3652 294.587 24.6934C294.259 25.0215 294.001 25.4082 293.814 25.8535C293.626 26.2871 293.533 26.75 293.533 27.2422V38ZM324.897 22.918L321.381 26.4512C321.205 25.959 320.965 25.5195 320.66 25.1328C320.356 24.7344 320.01 24.4004 319.623 24.1309C319.248 23.8613 318.838 23.6562 318.393 23.5156C317.948 23.375 317.491 23.3047 317.022 23.3047C316.366 23.3047 315.744 23.4395 315.159 23.709C314.584 23.9785 314.08 24.3594 313.647 24.8516C313.225 25.332 312.891 25.9062 312.645 26.5742C312.399 27.2422 312.276 27.9805 312.276 28.7891C312.276 29.4453 312.399 30.0605 312.645 30.6348C312.891 31.209 313.225 31.7129 313.647 32.1465C314.08 32.5801 314.584 32.9199 315.159 33.166C315.744 33.4121 316.366 33.5352 317.022 33.5352C317.491 33.5352 317.942 33.4707 318.375 33.3418C318.809 33.2129 319.213 33.0312 319.588 32.7969C319.975 32.5508 320.315 32.2578 320.608 31.918C320.912 31.5664 321.159 31.1797 321.346 30.7578L324.862 34.291C324.416 34.9238 323.901 35.4922 323.315 35.9961C322.741 36.5 322.114 36.9277 321.434 37.2793C320.766 37.6309 320.057 37.8945 319.307 38.0703C318.569 38.2578 317.807 38.3516 317.022 38.3516C315.698 38.3516 314.45 38.1055 313.278 37.6133C312.117 37.1094 311.098 36.4238 310.219 35.5566C309.352 34.6895 308.666 33.6758 308.162 32.5156C307.659 31.3555 307.407 30.1133 307.407 28.7891C307.407 27.3477 307.659 26 308.162 24.7461C308.666 23.4922 309.352 22.4023 310.219 21.4766C311.098 20.5391 312.117 19.8008 313.278 19.2617C314.45 18.7227 315.698 18.4531 317.022 18.4531C317.807 18.4531 318.575 18.5527 319.325 18.752C320.086 18.9512 320.807 19.2441 321.487 19.6309C322.178 20.0059 322.811 20.4688 323.385 21.0195C323.971 21.5703 324.475 22.2031 324.897 22.918ZM333.919 33.3945C334.107 33.4531 334.294 33.4941 334.482 33.5176C334.669 33.5293 334.857 33.5352 335.044 33.5352C335.513 33.5352 335.964 33.4707 336.398 33.3418C336.831 33.2129 337.236 33.0312 337.611 32.7969C337.997 32.5508 338.337 32.2578 338.63 31.918C338.935 31.5664 339.181 31.1797 339.369 30.7578L342.884 34.291C342.439 34.9238 341.923 35.4922 341.337 35.9961C340.763 36.5 340.136 36.9277 339.456 37.2793C338.788 37.6309 338.079 37.8945 337.329 38.0703C336.591 38.2578 335.829 38.3516 335.044 38.3516C333.72 38.3516 332.472 38.1055 331.3 37.6133C330.14 37.1211 329.12 36.4355 328.242 35.5566C327.374 34.6777 326.689 33.6348 326.185 32.4277C325.681 31.209 325.429 29.873 325.429 28.4199C325.429 26.9316 325.681 25.5723 326.185 24.3418C326.689 23.1113 327.374 22.0625 328.242 21.1953C329.12 20.3281 330.14 19.6543 331.3 19.1738C332.472 18.6934 333.72 18.4531 335.044 18.4531C335.829 18.4531 336.597 18.5469 337.347 18.7344C338.097 18.9219 338.806 19.1914 339.474 19.543C340.154 19.8945 340.786 20.3281 341.372 20.8438C341.958 21.3477 342.474 21.916 342.919 22.5488L333.919 33.3945ZM336.38 23.498C336.158 23.416 335.935 23.3633 335.712 23.3398C335.501 23.3164 335.279 23.3047 335.044 23.3047C334.388 23.3047 333.767 23.4277 333.181 23.6738C332.607 23.9082 332.103 24.248 331.669 24.6934C331.247 25.1387 330.913 25.6777 330.667 26.3105C330.421 26.9316 330.298 27.6348 330.298 28.4199C330.298 28.5957 330.304 28.7949 330.316 29.0176C330.339 29.2402 330.369 29.4688 330.404 29.7031C330.451 29.9258 330.503 30.1426 330.562 30.3535C330.62 30.5645 330.697 30.752 330.79 30.916L336.38 23.498Z" fill="#18181B"/>
</svg>
